{"title":"Leviathan.2014.NO.SUBBED.DVDRip.x264.HORiZON-ArtSubs","uid":11684632,"size":2129794177,"categoryP":"video","categoryS":"movies","magnet":"?xt=urn:btih:c3f7d5764f74770374586b2d2c6edd81826cd5eb&amp;dn=Leviathan.2014.NO.SUBBED.DVDRip.x264.HORiZON-ArtSubs&amp;tr=udp%3A%2F%2Ftracker.openbittorrent.com%3A80&amp;tr=udp%3A%2F%2Fopen.demonii.com%3A1337&amp;tr=udp%3A%2F%2Ftracker.coppersurfer.tk%3A6969&amp;tr=udp%3A%2F%2Fexodus.desync.com%3A6969","seeders":13,"leechers":2,"uploader":"lletaif","files":1,"time":1423266568,"description":"General\nUnique ID                                : 228909548853680425938607538870237519566 (0xAC36601EC25896B794E02D7BCFC7DECE)\nComplete name                            : Leviathan.2014.NO.SUBBED.DVDRip.x264.HORiZON-ArtSubs.mkv\nFormat                                   : Matroska\nFormat version                           : Version 2\nFile size                                : 1.98 GiB\nDuration                                 : 2h 15mn\nOverall bit rate mode                    : Variable\nOverall bit rate                         : 2 091 Kbps\nEncoded date                             : UTC 2015-02-06 19:59:21\nWriting application                      : DVDFab 9.1.4.0\nWriting library                          : libebml v0.7.8 + libmatroska v0.8.1\n\nVideo\nID                                       : 1\nFormat                                   : AVC\nFormat/Info                              : Advanced Video Codec\nFormat profile                           : &lt;a class=&quot;__cf_email__&quot; href=&quot;/cdn-cgi/l/email-protection&quot; data-cfemail=&quot;165e7f717e565a223827&quot;&gt;[email&amp;#160;protected]&lt;/a&gt;&lt;script cf-hash='f9e31' type=&quot;text/javascript&quot;&gt;\n/* &lt;![CDATA[ */!function(){try{var t=&quot;currentScript&quot;in document?document.currentScript:function(){for(var t=document.getElementsByTagName(&quot;script&quot;),e=t.length;e--;)if(t[e].getAttribute(&quot;cf-hash&quot;))return t[e]}();if(t&amp;&amp;t.previousSibling){var e,r,n,i,c=t.previousSibling,a=c.getAttribute(&quot;data-cfemail&quot;);if(a){for(e=&quot;&quot;,r=parseInt(a.substr(0,2),16),n=2;a.length-n;n+=2)i=parseInt(a.substr(n,2),16)^r,e+=String.fromCharCode(i);e=document.createTextNode(e),c.parentNode.replaceChild(e,c)}}}catch(u){}}();/* ]]&gt; */&lt;/script&gt;\nFormat settings, CABAC                   : Yes\nFormat settings, ReFrames                : 2 frames\nCodec ID                                 : V_MPEG4/ISO/AVC\nDuration                                 : 2h 15mn\nBit rate mode                            : Variable\nBit rate                                 : 1 602 Kbps\nMaximum bit rate                         : 2 485 Kbps\nWidth                                    : 1 024 pixels\nHeight                                   : 428 pixels\nDisplay aspect ratio                     : 2.40:1\nFrame rate mode                          : Constant\nFrame rate                               : 25.000 fps\nColor space                              : YUV\nChroma subsampling                       : 4:2:0\nBit depth                                : 8 bits\nScan type                                : Progressive\nBits/(Pixel*Frame)                       : 0.146\nStream size                              : 1.52 GiB (77%)\nDefault                                  : Yes\nForced                                   : No\n\nAudio\nID                                       : 2\nFormat                                   : AC-3\nFormat/Info                              : Audio Coding 3\nMode extension                           : CM (complete main)\nFormat settings, Endianness              : Big\nCodec ID                                 : A_AC3\nDuration                                 : 2h 15mn\nBit rate mode                            : Constant\nBit rate                                 : 448 Kbps\nChannel(s)                               : 6 channels\nChannel positions                        : Front: L C R, Side: L R, LFE\nSampling rate                            : 48.0 KHz\nBit depth                                : 16 bits\nCompression mode                         : Lossy\nStream size                              : 435 MiB (21%)\nLanguage                                 : Russian\nDefault                                  : Yes\nForced                                   : No\n\nMenu\n00:08:04.000                             : en:(01)00:08:04:000\n00:15:59.000                             : en:(02)00:15:59:000\n00:22:11.000                             : en:(03)00:22:11:000\n00:34:16.000                             : en:(04)00:34:16:000\n00:48:56.000                             : en:(05)00:48:56:000\n00:58:23.000                             : en:(06)00:58:23:000\n01:09:00.000                             : en:(07)01:09:00:000\n01:18:26.000                             : en:(08)01:18:26:000\n01:27:58.000                             : en:(09)01:27:58:000\n01:39:53.000                             : en:(10)01:39:53:000\n01:50:27.000                             : en:(11)01:50:27:000\n02:00:44.000                             : en:(12)02:00:44:000\n02:15:43.000                             : en:(13)02:15:43:000 / en:(14)02:15:43:000","torrent":{"xt":"urn:btih:c3f7d5764f74770374586b2d2c6edd81826cd5eb","amp;dn":"Leviathan.2014.NO.SUBBED.DVDRip.x264.HORiZON-ArtSubs","amp;tr":["udp%3A%2F%2Ftracker.openbittorrent.com%3A80","udp%3A%2F%2Fopen.demonii.com%3A1337","udp%3A%2F%2Ftracker.coppersurfer.tk%3A6969","udp%3A%2F%2Fexodus.desync.com%3A6969"],"infoHash":"c3f7d5764f74770374586b2d2c6edd81826cd5eb","infoHashBuffer":{"type":"Buffer","data":[195,247,213,118,79,116,119,3,116,88,107,45,44,110,221,129,130,108,213,235]},"announce":[],"urlList":[]}}